<svg width="159" height="121" viewBox="0 0 159 121" fill="none" xmlns="http://www.w3.org/2000/svg">
<path d="M83.334 5.72088C83.779 2.41548 86.6394 0 89.8812 0C90.199 0 90.4533 0 90.7711 0.0635653C94.3944 0.572088 96.937 3.87748 96.4284 7.5007C95.9199 11.1239 92.6145 13.6665 88.9913 13.158C85.4316 12.6495 82.889 9.3441 83.334 5.72088Z" fill="white"/>
<path d="M67.1884 0.254483C67.5063 0.190918 67.8877 0.190918 68.2055 0.190918C71.3838 0.190918 74.2442 2.54283 74.7527 5.78466C75.3248 9.40788 72.8458 12.7768 69.2225 13.3489C65.5993 13.921 62.2304 11.442 61.6583 7.81875C61.0862 4.19553 63.5652 0.826571 67.1884 0.254483Z" fill="white"/>
<path d="M44.5593 7.18302C45.4492 6.73806 46.4027 6.54736 47.3562 6.54736C49.8352 6.54736 52.1871 7.9458 53.3313 10.3613C54.9204 13.6667 53.4584 17.6077 50.153 19.1333C46.8476 20.7224 42.9066 19.2604 41.381 15.955C39.8555 12.7132 41.2539 8.77215 44.5593 7.18302Z" fill="white"/>
<path d="M124.143 19.896C125.478 18.3704 127.321 17.6077 129.165 17.6077C130.69 17.6077 132.216 18.1162 133.487 19.1968C136.221 21.5487 136.602 25.744 134.186 28.5409C131.835 31.3378 127.639 31.6556 124.842 29.2401C122.045 26.8246 121.728 22.6929 124.143 19.896Z" fill="white"/>
<path d="M24.9176 20.214C26.1889 19.0698 27.778 18.5613 29.3036 18.5613C31.147 18.5613 32.9268 19.3241 34.2617 20.7861C36.6772 23.5194 36.4865 27.7147 33.7532 30.1302C31.0199 32.5456 26.8245 32.2914 24.4091 29.6216C21.93 26.8248 22.1843 22.693 24.9176 20.214Z" fill="white"/>
<path d="M139.844 35.0245C140.924 34.3252 142.196 33.9438 143.403 33.9438C145.565 33.9438 147.662 35.0245 148.933 36.9314C150.904 39.9825 150.078 44.1143 146.963 46.0848C143.912 48.0553 139.78 47.229 137.81 44.1143C135.903 41.0632 136.792 36.995 139.844 35.0245Z" fill="white"/>
<path d="M9.72551 38.33C10.9968 36.2959 13.158 35.2153 15.3193 35.2153C16.527 35.2153 17.7347 35.5332 18.8153 36.2324C21.93 38.1393 22.8835 42.2075 20.913 45.3222C19.006 48.4369 14.9379 49.3904 11.8232 47.4199C8.70846 45.4493 7.75498 41.3812 9.72551 38.33Z" fill="white"/>
<path d="M0.254565 59.9421C1.08091 57.018 3.75066 55.1111 6.61109 55.1111C7.18318 55.1111 7.75527 55.1747 8.39092 55.3653C11.887 56.3188 13.9847 59.942 13.0312 63.5017C12.0777 66.9978 8.45449 69.0954 4.89483 68.142C1.33517 67.1249 -0.698915 63.5017 0.254565 59.9421Z" fill="white"/>
<path d="M82.3169 19.5147C82.6347 17.1628 84.6688 15.4465 86.9572 15.4465C87.1479 15.4465 87.4021 15.4465 87.5928 15.5101C90.1354 15.8279 91.9788 18.1798 91.5974 20.786C91.2796 23.3286 88.9277 25.172 86.3215 24.7906C83.7789 24.4728 81.9355 22.1209 82.3169 19.5147Z" fill="white"/>
<path d="M70.8753 15.7008C71.1296 15.6372 71.3839 15.6372 71.5746 15.6372C73.8629 15.6372 75.8334 17.2899 76.2148 19.6418C76.5962 22.1844 74.88 24.5999 72.2738 24.9813C69.7312 25.3627 67.3157 23.6464 66.9343 21.0403C66.5529 18.4341 68.2692 16.0822 70.8753 15.7008Z" fill="white"/>
<path d="M97.5092 22.4387C98.272 20.7225 99.9883 19.6418 101.768 19.6418C102.404 19.6418 103.039 19.769 103.675 20.0232C106.027 21.1038 107.108 23.8372 106.027 26.1891C104.946 28.541 102.213 29.6216 99.8611 28.541C97.5092 27.5875 96.4286 24.7906 97.5092 22.4387Z" fill="white"/>
<path d="M54.8568 20.5953C55.4925 20.2775 56.1917 20.1504 56.8274 20.1504C58.6072 20.1504 60.2599 21.1674 61.0862 22.8201C62.1669 25.172 61.2134 27.9689 58.8615 29.0495C56.5095 30.1301 53.7127 29.1767 52.6321 26.8247C51.4879 24.4728 52.5049 21.676 54.8568 20.5953Z" fill="white"/>
<path d="M111.239 29.558C112.192 28.4774 113.464 27.9053 114.799 27.9053C115.879 27.9053 116.96 28.2867 117.85 29.0494C119.82 30.7021 120.011 33.6897 118.358 35.6602C116.642 37.6308 113.718 37.8215 111.748 36.1688C109.777 34.5161 109.523 31.5285 111.239 29.558Z" fill="white"/>
<path d="M40.8726 29.8122C41.7625 28.9859 42.9066 28.6045 43.9873 28.6045C45.2586 28.6045 46.5299 29.113 47.4833 30.1936C49.1996 32.1006 49.0089 35.0882 47.102 36.8044C45.195 38.5207 42.2074 38.33 40.4912 36.423C38.7749 34.5161 38.9656 31.5285 40.8726 29.8122Z" fill="white"/>
<path d="M122.363 40.3006C123.126 39.7921 124.016 39.5378 124.906 39.5378C126.431 39.5378 127.957 40.3006 128.847 41.6991C130.245 43.8603 129.609 46.7843 127.448 48.1827C125.287 49.5812 122.363 48.9455 120.965 46.7843C119.566 44.6231 120.202 41.6991 122.363 40.3006Z" fill="white"/>
<path d="M30.1302 42.6523C31.0201 41.2538 32.5457 40.4275 34.1348 40.4275C34.9611 40.4275 35.8511 40.6818 36.6138 41.1267C38.8386 42.4616 39.4743 45.3856 38.1394 47.5468C36.741 49.7716 33.8805 50.4072 31.7193 49.0724C29.431 47.7375 28.7317 44.8135 30.1302 42.6523Z" fill="white"/>
<path d="M23.3918 57.9718C23.9639 55.8742 25.8709 54.5393 27.905 54.5393C28.2864 54.5393 28.7313 54.6029 29.1763 54.73C31.6553 55.4292 33.1173 57.9718 32.4817 60.5144C31.7824 62.9935 29.2398 64.4555 26.6972 63.8198C24.1546 63.0571 22.6926 60.4509 23.3918 57.9718Z" fill="white"/>
<path d="M81.4908 30.8293C81.6815 29.2401 83.0164 28.0959 84.6055 28.0959C84.7326 28.0959 84.8598 28.0959 85.0505 28.0959C86.7667 28.3502 87.9745 29.8758 87.7202 31.592C87.4659 33.3083 85.9404 34.516 84.2241 34.2618C82.4443 34.0711 81.2365 32.5455 81.4908 30.8293Z" fill="white"/>
<path d="M73.7992 28.2232C73.9899 28.2232 74.117 28.1597 74.2442 28.1597C75.7697 28.1597 77.1046 29.2403 77.3589 30.8294C77.6131 32.5457 76.469 34.1348 74.7527 34.3891C73.0364 34.6433 71.4473 33.4992 71.193 31.7829C70.9388 30.0666 72.0829 28.4775 73.7992 28.2232Z" fill="white"/>
<path d="M91.5974 32.7365C92.1059 31.5923 93.2501 30.8931 94.4578 30.8931C94.9028 30.8931 95.3478 30.9566 95.7292 31.1473C97.3183 31.8465 98.0175 33.6899 97.3183 35.2791C96.6191 36.8682 94.7757 37.5674 93.1865 36.8682C91.5974 36.169 90.8982 34.3256 91.5974 32.7365Z" fill="white"/>
<path d="M63.12 31.5285C63.565 31.3378 64.0099 31.2107 64.4549 31.2107C65.5991 31.2107 66.7432 31.8463 67.2518 32.9905C68.0145 34.5797 67.3153 36.423 65.7898 37.1223C64.2006 37.8851 62.3572 37.1858 61.658 35.6603C60.8952 34.0711 61.5945 32.2277 63.12 31.5285Z" fill="white"/>
<path d="M53.8396 37.6944C54.4117 37.1859 55.1745 36.9316 55.9372 36.9316C56.8272 36.9316 57.6535 37.313 58.2892 37.9487C59.4333 39.22 59.3062 41.1905 58.0349 42.3347C56.7636 43.4789 54.7931 43.3517 53.6489 42.0804C52.4412 40.8091 52.5683 38.8386 53.8396 37.6944Z" fill="white"/>
<path d="M108.188 44.6228C108.697 44.305 109.332 44.1143 109.904 44.1143C110.921 44.1143 111.938 44.6228 112.51 45.5127C113.464 46.9747 113.019 48.8817 111.621 49.8351C110.159 50.7886 108.252 50.3437 107.298 48.9452C106.281 47.5468 106.726 45.5763 108.188 44.6228Z" fill="white"/>
<path d="M113.273 53.5856C113.591 53.5221 113.845 53.4585 114.163 53.4585C115.498 53.4585 116.769 54.3484 117.151 55.6833C117.659 57.336 116.706 59.0522 115.053 59.5608C113.4 60.0693 111.684 59.1158 111.176 57.4631C110.667 55.8104 111.621 54.0942 113.273 53.5856Z" fill="white"/>
<path d="M42.2073 56.4461C42.5887 55.0476 43.86 54.1577 45.1948 54.1577C45.4491 54.1577 45.7669 54.2213 46.0212 54.2848C47.6739 54.7298 48.6909 56.4461 48.1824 58.0988C47.7374 59.7515 46.0212 60.7685 44.3685 60.26C42.7158 59.815 41.6987 58.0988 42.2073 56.4461Z" fill="white"/>
<path d="M80.8554 38.9658C80.9825 37.9487 81.8724 37.2495 82.8259 37.2495C82.8895 37.2495 83.0166 37.2495 83.0802 37.2495C84.1608 37.3766 84.9236 38.3937 84.7964 39.4743C84.6693 40.5549 83.6523 41.3177 82.5717 41.1906C81.491 41.0634 80.7283 40.11 80.8554 38.9658Z" fill="white"/>
<path d="M75.9605 37.3767C76.0877 37.3767 76.1512 37.3767 76.2784 37.3767C77.2318 37.3767 78.0582 38.0759 78.2489 39.093C78.4396 40.1736 77.6768 41.1906 76.5962 41.3813C75.5156 41.572 74.4985 40.8092 74.3078 39.7286C74.1807 38.5209 74.8799 37.5038 75.9605 37.3767Z" fill="white"/>
<path d="M87.2752 40.2369C87.593 39.4742 88.3558 39.0928 89.055 39.0928C89.3093 39.0928 89.6271 39.1563 89.8814 39.2835C90.8984 39.7284 91.3434 40.9362 90.8984 41.8896C90.4535 42.9067 89.2457 43.3516 88.2923 42.9067C87.2752 42.3982 86.8303 41.254 87.2752 40.2369Z" fill="white"/>
<path d="M63.2475 43.3518C63.6289 43.034 64.0739 42.8433 64.5824 42.8433C65.1545 42.8433 65.663 43.0975 66.0444 43.4789C66.8072 44.3053 66.68 45.5766 65.9173 46.2758C65.0909 46.975 63.8196 46.9114 63.1204 46.0851C62.3576 45.3223 62.4847 44.1146 63.2475 43.3518Z" fill="white"/>
<path d="M97.8268 47.8012C98.1446 47.6105 98.526 47.4834 98.9074 47.4834C99.5431 47.4834 100.179 47.8012 100.56 48.3733C101.132 49.2632 100.878 50.5345 99.988 51.1066C99.0981 51.6787 97.8268 51.4244 97.2547 50.5345C96.6191 49.6446 96.9369 48.3733 97.8268 47.8012Z" fill="white"/>
<path d="M58.7345 48.7547C59.1159 48.1827 59.7516 47.8013 60.4508 47.8013C60.8322 47.8013 61.15 47.9284 61.4678 48.1191C62.4213 48.6912 62.6756 49.8989 62.1035 50.8524C61.5314 51.8059 60.3236 52.0601 59.3702 51.4881C58.4167 50.916 58.0989 49.7082 58.7345 48.7547Z" fill="white"/>
<path d="M101.069 53.4586C101.26 53.395 101.45 53.395 101.641 53.395C102.531 53.395 103.294 53.9671 103.548 54.7935C103.866 55.8741 103.23 56.9547 102.213 57.2725C101.133 57.5903 100.052 56.9547 99.7342 55.9376C99.4164 54.9206 100.052 53.7764 101.069 53.4586Z" fill="white"/>
<path d="M55.8737 55.3018C56.128 54.4119 56.8908 53.8398 57.7807 53.8398C57.9714 53.8398 58.0985 53.8398 58.2892 53.9034C59.3698 54.2212 59.9419 55.3018 59.6876 56.3189C59.3698 57.3995 58.2892 57.9716 57.2722 57.7173C56.1916 57.4631 55.5559 56.3189 55.8737 55.3018Z" fill="white"/>
<path d="M129.991 53.7129C130.436 53.5858 130.881 53.5222 131.326 53.5222C133.36 53.5222 135.203 54.8571 135.839 56.8912C136.602 59.3702 135.14 61.9764 132.661 62.6756C130.182 63.3748 127.576 61.9764 126.813 59.4974C126.114 57.0819 127.512 54.4757 129.991 53.7129Z" fill="white"/>
<path d="M158.405 76.7871H147.471V120.456H158.405V76.7871Z" fill="white"/>
<path d="M15.3194 98.6536C15.3194 95.666 17.7984 93.187 20.786 93.187H53.84C54.6027 93.187 55.2384 92.8691 55.7469 92.3606C56.2554 91.8521 56.5733 91.2164 56.5733 90.4537C56.5733 89.6909 56.2554 89.0552 55.7469 88.5467C55.2384 88.0382 54.6027 87.7203 53.84 87.7203H21.8666C18.8155 87.7203 16.1457 88.9281 14.1752 90.8986C12.2047 92.8691 10.9969 95.6024 10.9969 98.6536C10.9969 101.705 12.2047 104.374 14.1752 106.409C16.1457 108.379 18.879 109.587 21.8666 109.587H67.5065V120.52H21.8666C15.8279 120.52 10.3613 118.041 6.42025 114.1C2.4792 110.159 0.0637207 104.692 0.0637207 98.6536C0.0637207 92.6149 2.4792 87.1482 6.42025 83.2072C10.3613 79.2662 15.8279 76.7871 21.8666 76.7871H53.84C57.5903 76.7871 61.0228 78.3127 63.5019 80.7917C65.9809 83.2708 67.5065 86.7033 67.5065 90.4537C67.5065 94.204 65.9809 97.6365 63.5019 100.116C61.0228 102.595 57.5903 104.12 53.84 104.12H20.786C17.7349 104.12 15.3194 101.641 15.3194 98.6536Z" fill="white"/>
<path d="M88.6734 98.6536C88.6734 101.705 91.0889 104.12 94.14 104.12H127.194C127.957 104.12 128.592 104.438 129.101 104.947C129.609 105.455 129.927 106.091 129.927 106.854C129.927 107.616 129.609 108.252 129.101 108.76C128.592 109.269 127.957 109.587 127.194 109.587H95.2206C92.1695 109.587 89.4997 108.379 87.5292 106.409C85.5587 104.438 84.3509 101.705 84.3509 98.6536C84.3509 95.6024 85.5587 92.9327 87.5292 90.8986C89.4997 88.9281 92.233 87.7203 95.2206 87.7203H140.86V76.7871H95.2206C89.1819 76.7871 83.7153 79.2662 79.7742 83.2072C75.8332 87.1482 73.3541 92.6149 73.4177 98.6536C73.4177 104.692 75.8332 110.159 79.7742 114.1C83.7153 118.041 89.1819 120.52 95.2206 120.52H127.13C130.881 120.52 134.313 118.994 136.792 116.515C139.271 114.036 140.797 110.604 140.797 106.854C140.797 103.103 139.271 99.6706 136.792 97.1916C134.313 94.7125 130.881 93.187 127.13 93.187H94.0764C91.0888 93.187 88.6734 95.666 88.6734 98.6536Z" fill="white"/>
<path d="M158.913 59.2429C158.913 62.8661 155.926 65.8537 152.302 65.8537C148.679 65.8537 145.692 62.8661 145.692 59.2429C145.692 55.6196 148.679 52.6321 152.302 52.6321C155.926 52.6321 158.913 55.6196 158.913 59.2429Z" fill="white"/>
<path d="M117.405 12.5227C117.405 16.1459 114.481 19.1334 110.794 19.1334C107.171 19.1334 104.183 16.1459 104.183 12.5227C104.183 8.89943 107.107 5.91187 110.794 5.91187C114.417 5.91187 117.405 8.89943 117.405 12.5227Z" fill="white"/>
<path d="M106.218 39.5378C106.218 41.2541 104.819 42.6525 103.103 42.6525C101.387 42.6525 99.9885 41.2541 99.9885 39.5378C99.9885 37.8215 101.387 36.4231 103.103 36.4231C104.819 36.4231 106.218 37.8215 106.218 39.5378Z" fill="white"/>
<path d="M52.4411 47.8647C52.4411 49.581 51.0426 50.9794 49.3264 50.9794C47.6101 50.9794 46.2117 49.581 46.2117 47.8647C46.2117 46.1484 47.6101 44.75 49.3264 44.75C51.0426 44.75 52.4411 46.1484 52.4411 47.8647Z" fill="white"/>
<path d="M94.585 46.5299C95.6733 46.5299 96.5555 45.6477 96.5555 44.5594C96.5555 43.4711 95.6733 42.5889 94.585 42.5889C93.4967 42.5889 92.6145 43.4711 92.6145 44.5594C92.6145 45.6477 93.4967 46.5299 94.585 46.5299Z" fill="white"/>
<path d="M72.0194 41.254C72.0194 42.3346 71.1295 43.2245 70.0489 43.2245C68.9683 43.2245 68.0784 42.3346 68.0784 41.254C68.0784 40.1734 68.9683 39.2835 70.0489 39.2835C71.1295 39.2199 72.0194 40.1098 72.0194 41.254Z" fill="white"/>
</svg>
